<svg width="100" height="100" viewBox="0 0 100 100" fill="none" xmlns="http://www.w3.org/2000/svg">
  <path d="M43.293 77.6055C43.293 94.1712 52.2124 100 70.0512 100C75.9975 100 80.6918 99.5399 85.0735 98.9265V78.8324C82.2567 79.1394 80.8482 79.2928 77.8753 79.2928C71.6161 79.2928 68.017 78.0656 68.017 71.3163V38.6445H84.1344V18.3973H68.017V0H43.293V77.6055Z" fill="#1C314A"/>
  <path d="M27.3051 40.7252C34.1414 40.7252 39.6833 35.293 39.6833 28.5917C39.6833 21.8904 34.1414 16.458 27.3051 16.458C20.4687 16.458 14.9268 21.8904 14.9268 28.5917C14.9268 35.293 20.4687 40.7252 27.3051 40.7252Z" fill="#1C314A"/>
</svg>
